<svg width="1488" height="452" viewBox="0 0 1488 452" fill="none" xmlns="http://www.w3.org/2000/svg">
<path d="M1267 79L1295 17L1323 4.5L1338.5 79H1487V144L714.5 128.5L584.5 165.5V209L497.5 224.5L516 296L593.5 380L463.5 451L345.5 187.5H299L271 165.5H187L91 336.5L1 296L63 187.5L1 144L47.5 32.5L299 17L516 15.2006L662 1L693 32.5H941H1105.5L1112 57L1149 79H1267Z" fill="#111010"/>
<path d="M497.5 17L516 15.2006M516 15.2006L662 1L693 32.5H941H1105.5L1112 57L1149 79H1267L1295 17L1323 4.5L1338.5 79H1487V144L714.5 128.5L584.5 165.5V209L497.5 224.5L516 296L593.5 380L463.5 451L345.5 187.5H299L271 165.5H187L91 336.5L1 296L63 187.5L1 144L47.5 32.5L299 17L516 15.2006Z" stroke="black"/>
</svg>
